<?xml version="1.0" standalone="no"?><!DOCTYPE svg PUBLIC "-//W3C//DTD SVG 1.1//EN" "http://www.w3.org/Graphics/SVG/1.1/DTD/svg11.dtd"><svg class="icon" height="512" viewBox="0 0 1024 1024" version="1.1" xmlns="http://www.w3.org/2000/svg"><path d="M512 0a512 512 0 1 0 512 512A512 512 0 0 0 512 0z m322.925714 336.091429L438.857143 729.234286V731.428571a55.588571 55.588571 0 0 1-77.165714 0v-2.194285L182.857143 551.131429A53.76 53.76 0 0 1 182.857143 475.428571a54.491429 54.491429 0 0 1 73.142857 0l142.262857 141.897143 358.765714-356.937143a54.491429 54.491429 0 0 1 76.434286 0 53.76 53.76 0 0 1 1.462857 75.702858z" fill="#B2E494" /></svg>